<svg width="50" height="50" viewBox="0 0 50 50" fill="none" xmlns="http://www.w3.org/2000/svg">
<path d="M45.3783 10.5689C45.3774 10.5527 45.3756 10.5366 45.3729 10.5206C45.3104 10.4313 45.2336 10.3545 45.1693 10.267C44.7025 9.63109 44.2082 9.01903 43.6867 8.43073C43.5439 8.26997 43.4009 8.11099 43.2545 7.95379C42.7174 7.37867 42.1542 6.83024 41.5647 6.30872C41.4557 6.21222 41.3539 6.11227 41.245 6.01755C39.7923 4.77302 38.2016 3.69898 36.5043 2.81668C36.4364 2.78099 36.365 2.75064 36.2953 2.71484C35.5394 2.33074 34.7644 1.98546 33.9732 1.68058C33.7945 1.61632 33.632 1.55551 33.4623 1.50192C32.7586 1.24833 32.0441 1.02623 31.3189 0.835645C31.1045 0.7785 30.8902 0.719575 30.6723 0.669547C29.9577 0.503449 29.2433 0.376599 28.5127 0.272984C28.2912 0.240853 28.0733 0.197941 27.8499 0.171148C25.9682 -0.0575376 24.0658 -0.0575376 22.184 0.171148C21.9607 0.197941 21.7428 0.240853 21.5213 0.272984C20.7907 0.376599 20.0691 0.503449 19.3617 0.669547C19.1438 0.719575 18.9294 0.7785 18.7151 0.835645C17.9851 1.02613 17.2707 1.24822 16.5716 1.50192C16.393 1.56262 16.2304 1.62343 16.0608 1.68058C15.2696 1.98546 14.4945 2.33063 13.7386 2.71484C13.6689 2.75053 13.5976 2.78089 13.5296 2.81668C11.8267 3.69804 10.2307 4.77197 8.77286 6.01755C8.66391 6.11216 8.56207 6.21222 8.45312 6.30872C7.8577 6.83265 7.29441 7.38108 6.76335 7.95379C6.61693 8.11099 6.47397 8.26997 6.3311 8.43073C5.80832 9.01778 5.31411 9.62984 4.84857 10.2669C4.78431 10.3544 4.70749 10.4312 4.6449 10.5205C4.63674 10.5361 4.62951 10.5522 4.62344 10.5688C-1.53757 19.203 -1.53757 30.7964 4.62344 39.4306C4.62951 39.4471 4.63663 39.4632 4.6449 39.4788C4.70738 39.5681 4.7842 39.6449 4.84857 39.7324C5.31421 40.3683 5.80832 40.9804 6.3311 41.5687C6.47397 41.7295 6.61693 41.8884 6.76335 42.0456C7.30163 42.6208 7.86481 43.1692 8.45312 43.6907C8.56207 43.7872 8.66391 43.8872 8.77286 43.9819C10.2256 45.2264 11.8162 46.3004 13.5135 47.1827C13.5814 47.2184 13.6528 47.2488 13.7225 47.2846C14.4784 47.6687 15.2534 48.014 16.0446 48.3188C16.2233 48.3831 16.3858 48.4439 16.5555 48.4975C17.2592 48.7511 17.9738 48.9732 18.699 49.1638C18.9133 49.2209 19.1277 49.2799 19.3456 49.3299C20.0601 49.496 20.7745 49.6228 21.5052 49.7264C21.7266 49.7586 21.9445 49.8015 22.1679 49.8283C24.0496 50.057 25.952 50.057 27.8338 49.8283C28.0571 49.8015 28.275 49.7586 28.4965 49.7264C29.2271 49.6228 29.9487 49.496 30.6561 49.3299C30.874 49.2799 31.0884 49.2209 31.3027 49.1638C32.0339 48.9733 32.7484 48.7512 33.4462 48.4975C33.6249 48.4368 33.7874 48.376 33.9571 48.3188C34.7482 48.014 35.5233 47.6688 36.2792 47.2846C36.3489 47.2489 36.4203 47.2185 36.4882 47.1827C38.1855 46.3003 39.7761 45.2264 41.2288 43.9819C41.3378 43.8872 41.4396 43.7872 41.5486 43.6907C42.144 43.1679 42.7073 42.6196 43.2383 42.0456C43.3848 41.8884 43.5277 41.7295 43.6706 41.5687C44.1934 40.9804 44.6876 40.3683 45.1531 39.7324C45.2174 39.6449 45.2942 39.5681 45.3568 39.4788C45.365 39.4632 45.3722 39.4471 45.3783 39.4306C51.5393 30.7965 51.5393 19.2031 45.3783 10.5689ZM43.3402 13.9485C45.0485 16.7619 46.08 19.9336 46.3535 23.2137H35.654C35.523 21.0853 35.1881 18.9744 34.6538 16.9101C37.6761 16.3441 40.6015 15.3467 43.3402 13.9485ZM29.5541 4.05807C29.6541 4.08131 29.7505 4.11344 29.8506 4.13667C30.49 4.28676 31.1242 4.45819 31.744 4.67254C31.8387 4.70467 31.9315 4.74225 32.0245 4.77616C32.639 4.9905 33.2444 5.22808 33.8375 5.49068C33.9412 5.53893 34.043 5.59252 34.1466 5.64077C34.7146 5.91111 35.2695 6.20343 35.8113 6.51783L36.1686 6.73396C36.683 7.04836 37.1832 7.38474 37.669 7.74321C37.7941 7.83426 37.919 7.92187 38.0423 8.02182C38.5186 8.37903 38.9747 8.76188 39.4106 9.17037C39.5248 9.27399 39.6428 9.37582 39.7553 9.483C40.2126 9.91703 40.6484 10.3761 41.07 10.8512C41.1236 10.9137 41.1807 10.9709 41.2343 11.0299C38.8157 12.1825 36.2534 13.0056 33.6161 13.477C32.3943 10.1182 30.7803 6.91533 28.8076 3.93499C29.0557 3.97958 29.3094 4.00459 29.5541 4.05807ZM17.9293 23.2136C18.0702 21.2809 18.3992 19.3665 18.9117 17.4977C20.9356 17.7381 22.9719 17.8573 25.01 17.8549C27.0499 17.8543 29.0881 17.732 31.1135 17.4887C31.6251 19.3605 31.9524 21.2779 32.0905 23.2136H17.9293ZM32.0905 26.7861C31.9496 28.7188 31.6206 30.6331 31.1081 32.502C29.0842 32.2616 27.0479 32.1423 25.0099 32.1448C22.97 32.1424 20.9319 32.2617 18.9063 32.502C18.3952 30.633 18.0681 28.7187 17.9292 26.7861H32.0905ZM25.0099 4.72979C27.0426 7.61081 28.7145 10.7303 29.9881 14.0182C28.3345 14.1938 26.6728 14.282 25.0099 14.2826C23.3488 14.2806 21.6888 14.1918 20.037 14.0164C21.3122 10.7307 22.982 7.61228 25.0099 4.72979ZM8.95173 10.8494C9.37152 10.3742 9.80911 9.91515 10.2664 9.48111C10.3789 9.37394 10.4968 9.2721 10.6111 9.16849C11.0518 8.76722 11.5079 8.38437 11.9794 8.01993C12.1027 7.92521 12.2276 7.84128 12.3527 7.74132C12.8385 7.38411 13.3387 7.04763 13.8531 6.73207L14.2103 6.51595C14.7522 6.19924 15.3071 5.90682 15.8751 5.63888C15.9787 5.59063 16.0805 5.53705 16.1842 5.4888C16.7772 5.22086 17.3827 4.98328 17.9972 4.77427C18.09 4.74036 18.1759 4.70279 18.2776 4.67066C18.8974 4.46343 19.528 4.29199 20.171 4.13479C20.2711 4.11155 20.3675 4.07942 20.4693 4.05797C20.714 4.00438 20.9677 3.97937 21.216 3.93468C19.2425 6.91554 17.628 10.119 16.4056 13.4785C13.7683 13.0071 11.2059 12.184 8.78741 11.0314C8.84099 10.969 8.89814 10.9118 8.95173 10.8494ZM6.67963 13.9485C9.41768 15.3466 12.3424 16.344 15.3642 16.9101C14.8306 18.9746 14.4962 21.0854 14.3658 23.2137H3.66631C3.9399 19.9336 4.97144 16.7619 6.67963 13.9485ZM6.67963 36.0513C4.97134 33.2378 3.93979 30.0662 3.66631 26.7861H14.3658C14.4968 28.9145 14.8317 31.0253 15.366 33.0896C12.3437 33.6555 9.41831 34.653 6.67963 36.0513ZM20.4658 45.9416C20.3657 45.9183 20.2693 45.8862 20.1693 45.863C19.5298 45.7129 18.8956 45.5414 18.2758 45.3271C18.1811 45.295 18.0883 45.2574 17.9953 45.2235C17.3809 45.0091 16.7754 44.7716 16.1823 44.509C16.0787 44.4607 15.9768 44.4071 15.8732 44.3589C15.3052 44.0885 14.7503 43.7962 14.2085 43.4818L13.8512 43.2657C13.3368 42.9513 12.8367 42.6149 12.3508 42.2564C12.2257 42.1654 12.1008 42.0778 11.9775 41.9778C11.5012 41.6206 11.0451 41.2378 10.6093 40.8293C10.495 40.7256 10.377 40.6238 10.2645 40.5166C9.80723 40.0826 9.37142 39.6236 8.94984 39.1484C8.89625 39.0859 8.83911 39.0288 8.78552 38.9697C11.2041 37.8171 13.7664 36.994 16.4037 36.5226C17.6256 39.8814 19.2395 43.0843 21.2122 46.0646C20.9641 46.0202 20.7105 45.9952 20.4658 45.9416ZM25.0099 45.27C22.9771 42.3889 21.3053 39.2695 20.0316 35.9815C23.3397 35.6255 26.6764 35.6255 29.9844 35.9815L29.9826 35.9833C28.7077 39.269 27.0378 42.3874 25.0099 45.27ZM41.0681 39.1503C40.6483 39.6254 40.2107 40.0845 39.7534 40.5185C39.6409 40.6257 39.523 40.7275 39.4087 40.8311C38.968 41.2337 38.5119 41.6165 38.0404 41.9797C37.9171 42.0743 37.7922 42.1673 37.6671 42.2583C37.1813 42.6155 36.6811 42.952 36.1667 43.2676L35.8095 43.4837C35.2688 43.7992 34.7139 44.0916 34.1447 44.3608C34.0411 44.409 33.9393 44.4626 33.8357 44.5108C33.2426 44.7788 32.6371 45.0164 32.0226 45.2254C31.9298 45.2593 31.8439 45.2968 31.7422 45.329C31.1224 45.5362 30.4918 45.7076 29.8488 45.8648C29.7487 45.8881 29.6523 45.9202 29.5505 45.9417C29.3058 45.9953 29.0521 46.0203 28.8038 46.065C30.7765 43.0846 32.3906 39.8818 33.6123 36.523C36.2497 36.9944 38.812 37.8174 41.2305 38.9701C41.1788 39.0307 41.1217 39.0878 41.0681 39.1503ZM43.3402 36.0513C40.6021 34.6532 37.6774 33.6558 34.6556 33.0896C35.1892 31.0252 35.5236 28.9144 35.654 26.7861H46.3535C46.0799 30.0661 45.0484 33.2377 43.3402 36.0513Z" fill="black"/>
</svg>
